<svg xmlns="http://www.w3.org/2000/svg" viewBox="0 0 400 150"><path d="M39.1 17.4H23.2L0 87.9v14h24.5v23.5h14.6v-23.5h7.4v-14h-7.4V17.4zM24.5 54.1v33.8h-11l9.3-33.8.9-3.2h.9v3.2zM104.4 26.3c-.4-.7-.8-1.3-1.2-2-2.5 4.6-5 9.3-6.3 15.1 1.9-4.1 4.4-8.6 7.5-13.1z"/><path d="M91.9 42.9c3-7.7 6.4-14.6 10-20.2-3.1-3.7-7.9-6.4-15.3-6.4-21.3 0-21.2 23.4-21.2 23.4v63.7s-.1 23.4 21.2 23.4c.7 0 1.4 0 2-.1-2.4-5.1-4.1-10.7-5.2-16.6-2.3-2.2-2.2-6.7-2.2-6.7V39.6s-.3-7.9 5.3-7.9 5.3 7.9 5.3 7.9v3.3z"/><path fill="#17C0E9" d="M175.1 51.6c-1.2-20.3-7.3-40.5-21.2-48.1-20-11-38.2 5.7-49.5 22.7-3 4.5-5.6 9.1-7.5 13.1 1.4-5.8 3.8-10.5 6.3-15.1 1.8-3.3 3.6-6.6 5.1-10.2-2.1 2.4-4.3 5.2-6.3 8.5-3.6 5.7-7 12.6-10 20.2-7.8 20.1-12.4 45.4-8.4 67.1a71.3 71.3 0 005.2 16.6c.3.6.5 1.2.8 1.8 5.9 11.5 19.5 26.2 37.5 20.4 10.4-3.4 19.9-11.9 27.7-23.3 4.7-6.9 8.8-14.9 12.1-23.4v-.1c1.7-4.5 3.2-9.2 4.5-14 2.9-11.9 4.4-24.4 3.7-36.2zm-23 58.9c-5 8.8-11.3 15.5-18.6 18.6-13.2 5.7-22.8-3.5-28.1-14.9-1.7-3.7-2.9-7.5-3.7-11.2.3 4.4 1.2 9.2 2.6 13.7 3.9 12.8 12.5 23.8 28.4 21.4-9.3 9.2-24 .6-29.4-7.3-1.6-2.4-3-5.1-4.2-8-9-22.8-3.3-57.8 8.6-82.3 5.8-11.9 13.1-21.3 20.9-25.5 9.6-5.2 16.9-3.1 22 2.9 10 11.8 11.6 38.5 5.7 54.2 6.5-9.7 7.2-28.6 4.9-42.4 8 23.4 3.6 58.6-9.1 80.8z"/><path d="M326.7 103.2V39.6s.1-19-15.5-22.7c-11.4 8.2-21.5 27.3-26.8 48.3v38.1s-.1 11.5 7.2 18.3c-2.5-5.9-3.9-12.5-4.3-18.5 1.7 8.2 5.7 17.2 11.8 22.7 1.9.5 4.1.9 6.5.9 21.3-.1 21.1-23.5 21.1-23.5zm-26.5 0V39.6s-.3-7.9 5.3-7.9 5.3 7.9 5.3 7.9v63.7s.3 7.9-5.3 7.9c-5.5-.1-5.3-8-5.3-8z"/><path fill="#F6921F" d="M360.7 51.6c-.1-1.8-.2-3.6-.4-5.3-1.9-18.4-8.1-35.8-20.8-42.8-16.8-9.2-32.3 1.1-43.6 14.7-4.3 5.2-8 10.9-10.9 16.2-.9 1.7-1.8 3.3-2.5 4.9 2.3-9.9 7.9-16.6 11.4-25.3-18.5 20.5-36.9 78.7-18.8 114.2 5.9 11.5 19.5 26.2 37.5 20.4 16.7-5.4 31.1-24.2 39.8-46.8 6-15.9 9.2-33.7 8.3-50.2zm-41.6 77.5c-8.1 3.5-14.8 1.4-20-3.4-6-5.5-10-14.6-11.8-22.7.5 6.1 1.8 12.7 4.3 18.5 4.5 10.5 12.8 18.6 26.7 16.5-9.3 9.2-24 .6-29.4-7.3-10.6-15.8-10.5-41.9-4.5-65.6 5.3-21 15.4-40.1 26.8-48.3 1-.7 2-1.3 3-1.9C342.7-.5 350.8 48.3 341.9 72c6.5-9.7 7.2-28.6 4.9-42.4 5.4 16 5.1 37.3.4 56.4-.2.8-.4 1.6-.6 2.5-5.2 18.9-14.8 35.2-27.5 40.6z"/><path d="M378.1 101.9h-24.5v-14l23.2-70.6h15.9v70.6h7.3v14h-7.3v23.5h-14.6v-23.5zm-11-14h11v-37h-.9l-.9 3.2-9.2 33.8z"/></svg>